<?xml version="1.0" standalone="no"?>
<!DOCTYPE svg PUBLIC "-//W3C//DTD SVG 20010904//EN"
 "http://www.w3.org/TR/2001/REC-SVG-20010904/DTD/svg10.dtd">
<svg version="1.0" xmlns="http://www.w3.org/2000/svg"
 width="1200.000000pt" height="1200.000000pt" viewBox="0 0 1200.000000 1200.000000"
 preserveAspectRatio="xMidYMid meet">
<metadata>
Created by potrace 1.14, written by Peter Selinger 2001-2017
</metadata>
<g transform="translate(0.000000,1200.000000) scale(0.100000,-0.100000)"
fill="#000000" stroke="none">
<path d="M6016 9883 c-1 -2 -31 -5 -67 -7 -73 -5 -179 -21 -227 -35 -18 -5
-35 -10 -37 -10 -35 1 -199 -51 -324 -102 -108 -45 -208 -97 -305 -160 -38
-24 -70 -42 -72 -39 -2 3 -9 -2 -16 -11 -7 -9 -47 -42 -88 -74 -86 -67 -267
-247 -323 -321 l-39 -51 -56 19 c-92 31 -263 71 -347 82 -27 4 -63 9 -79 12
-15 2 -78 7 -140 9 -61 2 -113 5 -116 6 -3 1 -9 0 -15 -1 -5 -2 -40 -4 -77 -5
-71 -3 -190 -14 -223 -22 -11 -2 -33 -6 -50 -7 -64 -7 -275 -63 -340 -90 -16
-7 -46 -19 -65 -26 -61 -22 -278 -129 -285 -140 -4 -6 -10 -8 -15 -5 -5 3 -12
-1 -17 -8 -9 -14 -42 -31 -56 -28 -5 1 -6 -3 -2 -9 3 -5 2 -10 -3 -10 -6 0
-58 -36 -117 -81 -131 -98 -314 -278 -392 -384 -12 -17 -36 -50 -55 -75 -58
-79 -88 -126 -88 -138 0 -7 -4 -12 -10 -12 -5 0 -10 -4 -10 -10 0 -5 -13 -31
-28 -57 -15 -26 -49 -95 -74 -153 -77 -173 -130 -352 -153 -510 -3 -19 -7 -44
-10 -55 -9 -42 -18 -195 -18 -301 l1 -110 -62 9 c-58 8 -217 4 -281 -8 -84
-16 -263 -92 -320 -136 -64 -51 -146 -130 -184 -178 -38 -47 -81 -110 -81
-116 0 -2 -13 -26 -29 -53 -37 -62 -85 -203 -105 -307 -31 -161 -6 -468 50
-600 8 -19 15 -37 15 -40 6 -40 101 -238 126 -263 7 -8 18 -23 24 -34 28 -53
164 -189 244 -244 30 -20 55 -41 55 -45 0 -5 -22 -30 -49 -56 -28 -26 -117
-113 -199 -192 l-150 -145 66 -95 c175 -255 263 -363 421 -522 153 -153 234
-209 404 -284 40 -17 44 -18 151 -39 74 -15 250 -13 304 3 17 5 32 8 32 6 0
-14 241 90 248 107 2 4 10 8 18 8 8 0 14 4 14 8 0 4 12 15 28 24 30 18 100 85
147 139 28 32 38 46 79 104 13 19 15 17 21 -20 4 -22 12 -46 18 -52 5 -7 6
-13 2 -13 -4 0 -2 -7 5 -15 7 -8 15 -13 19 -11 3 2 35 7 71 11 80 9 97 12 138
19 l32 6 1 -102 c1 -115 3 -153 13 -216 4 -24 9 -58 11 -75 5 -50 53 -236 76
-297 45 -117 146 -313 193 -374 14 -19 26 -39 26 -44 0 -6 3 -12 8 -14 4 -1
20 -21 37 -43 54 -74 156 -179 236 -245 29 -25 60 -51 67 -57 8 -7 35 -27 60
-45 26 -17 50 -36 54 -42 5 -7 8 -7 8 -1 0 7 3 7 8 0 13 -18 144 -87 287 -150
64 -28 231 -77 305 -90 19 -3 42 -8 50 -10 61 -17 351 -26 440 -13 30 4 75 10
100 13 25 3 54 7 65 9 126 26 267 68 351 106 74 33 175 83 209 104 59 37 110
71 115 76 3 3 21 17 40 30 59 41 81 61 186 165 91 91 204 227 204 245 0 5 17
4 38 -1 39 -10 166 -23 217 -22 56 0 170 12 203 22 17 5 32 8 32 6 0 -7 142
44 190 68 134 67 292 206 367 322 18 28 37 55 43 62 5 7 10 14 10 17 0 3 11
29 24 58 26 58 53 134 60 170 13 72 13 72 105 103 l87 30 50 -25 c69 -36 230
-89 324 -107 14 -3 36 -7 50 -10 14 -2 104 -6 200 -8 141 -3 195 -1 278 15
180 33 369 103 495 183 32 21 60 37 63 37 3 0 12 6 19 13 8 6 20 17 27 22 99
77 202 173 260 244 43 51 118 160 118 169 0 6 4 12 8 14 15 6 100 192 130 283
16 50 35 119 42 155 6 36 15 84 20 108 4 23 8 101 8 172 l1 130 32 40 32 40
96 -1 c95 -1 192 6 241 17 14 3 38 8 54 10 115 21 323 116 432 197 157 118
300 290 374 450 20 43 25 47 59 48 20 0 128 2 241 4 113 2 212 4 221 4 37 2
61 424 33 571 -16 82 -24 120 -28 135 -1 6 -8 30 -15 55 -30 110 -82 224 -136
295 -21 26 -39 62 -42 79 -3 17 -11 63 -20 101 -8 39 -16 79 -18 90 -2 11 -10
56 -18 100 -9 44 -18 94 -21 110 -3 17 -7 42 -10 58 -20 95 -65 372 -91 557
-13 94 -18 135 -30 235 -2 17 -5 50 -8 75 -26 219 -44 523 -46 783 l-1 77
-167 -5 c-164 -4 -836 -18 -900 -17 -30 0 -38 -7 -34 -30 0 -4 3 -27 5 -52 3
-25 7 -50 11 -56 7 -11 -20 -19 -85 -25 -25 -2 -56 -6 -70 -9 -31 -6 -100 -15
-165 -22 -47 -5 -53 -3 -100 37 -110 92 -288 199 -448 269 -54 23 -250 89
-282 95 -11 2 -38 6 -60 10 -22 3 -48 8 -57 11 -86 25 -331 35 -507 20 -46 -4
-87 -8 -90 -10 -3 -2 -26 -7 -51 -10 -60 -8 -230 -52 -294 -77 -28 -10 -55
-19 -61 -19 -5 0 -28 16 -50 36 -66 58 -222 174 -234 174 -6 0 -11 5 -11 10 0
6 -7 10 -15 10 -8 0 -15 3 -15 8 0 4 -10 12 -23 18 -12 6 -69 36 -127 65 -58
30 -121 60 -140 67 -101 38 -195 73 -198 72 -1 -1 -26 5 -55 14 -28 8 -63 17
-77 20 -14 2 -48 9 -77 15 -108 21 -232 33 -366 35 -76 1 -139 1 -141 -1z"/>
</g>
</svg>
